<svg version="1" id="Layer_1" xmlns="http://www.w3.org/2000/svg" viewBox="0 0 37.81 34.28"><style>.st0{fill-rule:evenodd;clip-rule:evenodd;fill:#706F6F;} .st1{fill:#706F6F;}</style><path class="st0" d="M21.97 14.96l1.72-.94h-2.25l.53.94m-2.23 10.39c-.18 0-.33-.16-.33-.33v-6.25c0-.93-.91-1.67-1.85-1.68-.77 0-1.52.32-2.07.84l-.01-2.84c0-.95.64-1.79 1.65-1.79h.97c.55 0 1.1-.4 1.24-.94.04-.12.18-.25.33-.25h8.75c2.9 0 5.72 1.77 6.48 4.53l1.5 5.51c.24.88.79 1.89 1.29 2.67.03.04.05.11.05.19 0 .18-.16.33-.35.33H19.74z"/><path class="st0" d="M.41 25.35h14.17c.16 0 .34-.18.34-.33V4.86c0-.18.15-.34.34-.34h2.19c1.08 0 1.96.88 1.96 1.96v4.45c0 .19.15.34.33.34h10.61c1.6 0 3.06-.68 4.08-1.75.96-1.01 1.56-2.39 1.56-3.89 0-1.26-.43-2.43-1.13-3.37C33.85.91 32.19 0 30.35 0H.41C.22 0 .07.15.07.34v24.67c0 .18.15.34.34.34"/><path class="st1" d="M0 31.34c0-.31.27-1.89 2-1.89h2.21v.95H2.96c-1.34 0-1.26 1-1.26 1.41v2.46H0v-2.93zm8.93-1.89v2.46c0 .72.1 1.41-1.11 1.41-1.21 0-1.11-.74-1.11-1.41v-2.46H5.08v2.94c0 .31.26 1.85 1.88 1.88h1.69c1.66 0 1.93-1.57 1.93-1.88v-2.94H8.93zm17.14.88h.28c1.11.03 1.07.39 1.07 1.23h-2.28c0-.81-.09-1.18.93-1.23m1.34 2.04h1.55v-1c0-.31.05-1.89-2.4-1.89h-.69c-2.25 0-2.43 1.58-2.43 1.89v1.02c0 .31.28 1.88 2.01 1.88h3.41v-.91H26.4c-1 0-1.19-.55-1.23-.99h2.24zm2.65-3.36h1.71v2.87c0 .41-.06 1.39 1.28 1.39h.52v1.01h-1.49c-1.73 0-2.01-1.58-2.01-1.89v-3.38zm4.24 0H36v2.87c0 .41-.06 1.39 1.28 1.39h.52v1.01h-1.5c-1.73 0-2.01-1.57-2.01-1.88v-3.39zm-18.68 5.21c-.29.06-.61.06-.89.06h-2.95v-1.06h2.42c.14 0 .3 0 .44-.01.3-.02.54-.01.54-.34 0-.5-.45-.5-.85-.5-.47 0-1.24.06-1.71-.11-.62-.22-.94-.74-.94-1.34 0-.35.11-.66.34-.93.37-.43.79-.46 1.35-.46h2.94v.99h-2.3c-.06 0-.13.01-.2.01-.32 0-.57.18-.57.56 0 .49.65.38 1.01.38h.67c.93 0 1.73.33 1.73 1.32.02.6-.34 1.29-1.03 1.43m5.98 0c-.28.06-.6.06-.89.06h-2.96v-1.07h2.43c.14 0 .29 0 .44-.01.3-.02.55-.01.55-.34 0-.5-.45-.5-.85-.5-.48 0-1.24.06-1.71-.11-.62-.22-.94-.74-.94-1.34 0-.35.12-.67.34-.93.37-.43.79-.46 1.35-.46h2.94v.99h-2.29c-.06 0-.13.01-.2.01-.32 0-.58.18-.58.56 0 .49.65.38 1.01.38h.67c.94 0 1.73.34 1.73 1.32 0 .61-.36 1.3-1.04 1.44"/></svg>